<svg width="397" height="58" fill="none" xmlns="http://www.w3.org/2000/svg"><path fill-rule="evenodd" clip-rule="evenodd" d="M74.892 56.569h.913v-2.692h-.913v-7.383h-.928v7.383h-3.086v-7.383h-.928v8.265h4.942v1.81Zm6.722-4.345c-.126 1.213-.724 1.78-1.92 1.78-1.087 0-1.748-.646-1.748-2.032v-.897h4.487V49.25c0-1.889-1.102-2.943-2.755-2.943-1.606 0-2.676 1.054-2.676 2.943v2.723c0 1.89 1.055 2.944 2.66 2.944 1.732 0 2.755-.96 2.88-2.692h-.928Zm-1.92-5.005c1.133 0 1.81.645 1.81 2.03v.96h-3.558v-.96c0-1.385.662-2.03 1.748-2.03Zm8.673-.724v3.541H85.22v-3.541h-.929v8.264h.929v-3.841h3.148v3.84h.929v-8.264h-.929Zm7.178 0h-5.021v.865h2.046v7.399h.929V47.36h2.046v-.865Zm4.062-.19c-.803 0-1.512.347-1.952.96l-.126-.77h-.756v11.097h.913V54.02c.457.63 1.18.929 1.92.929 1.591 0 2.566-1.055 2.566-3.101V49.47c0-2.094-1.07-3.164-2.565-3.164Zm1.621 5.542c0 1.574-.614 2.235-1.826 2.235-1.039 0-1.716-.913-1.716-2.235v-2.409c0-1.543.771-2.267 1.716-2.267 1.149 0 1.826.677 1.826 2.299v2.377Zm11.428-5.352h-5.005v8.264h.928v-7.383h3.149v7.383h.928v-8.264Zm4.912-.19c-.803 0-1.512.347-1.952.96l-.126-.77h-.756v11.097h.913V54.02c.457.63 1.181.929 1.921.929 1.59 0 2.565-1.055 2.565-3.101V49.47c0-2.094-1.07-3.164-2.565-3.164Zm1.621 5.542c0 1.574-.614 2.235-1.826 2.235-1.039 0-1.716-.913-1.716-2.235v-2.409c0-1.543.771-2.267 1.716-2.267 1.149 0 1.826.677 1.826 2.299v2.377Zm5.368 3.1c1.653 0 2.755-1.054 2.755-2.99v-2.66c0-1.937-1.102-2.991-2.755-2.991-1.653 0-2.755 1.054-2.755 2.99v2.66c0 1.937 1.102 2.992 2.755 2.992Zm0-.912c-1.118 0-1.81-.646-1.81-2.078v-2.66c0-1.433.692-2.078 1.81-2.078 1.117 0 1.81.645 1.81 2.078v2.66c0 1.432-.693 2.078-1.81 2.078Zm8.736-7.54h-4.108v8.264h.929v-7.367h3.179v-.898Zm4.109-.19c-.803 0-1.511.347-1.952.96l-.126-.77h-.756v11.097h.913V54.02c.457.63 1.181.929 1.921.929 1.59 0 2.566-1.055 2.566-3.101V49.47c0-2.094-1.071-3.164-2.566-3.164Zm1.621 5.542c0 1.574-.614 2.235-1.826 2.235-1.039 0-1.716-.913-1.716-2.235v-2.409c0-1.543.772-2.267 1.716-2.267 1.149 0 1.826.677 1.826 2.299v2.377Zm7.226.377c-.126 1.213-.725 1.78-1.921 1.78-1.086 0-1.747-.646-1.747-2.032v-.897h4.486V49.25c0-1.889-1.102-2.943-2.755-2.943-1.605 0-2.676 1.054-2.676 2.943v2.723c0 1.89 1.055 2.944 2.661 2.944 1.731 0 2.754-.96 2.88-2.692h-.928Zm-1.921-5.005c1.133 0 1.81.645 1.81 2.03v.96h-3.557v-.96c0-1.385.661-2.03 1.747-2.03Zm7.037 7.697c1.637 0 2.691-1.054 2.739-2.944h-.945c-.047 1.386-.693 2.031-1.794 2.031-1.055 0-1.701-.645-1.701-2.03v-2.724c0-1.385.646-2.03 1.701-2.03 1.101 0 1.731.645 1.778 2.03h.945c-.047-1.889-1.086-2.943-2.723-2.943-1.59 0-2.645 1.054-2.645 2.943v2.723c0 1.89 1.055 2.944 2.645 2.944Zm6.8 0c1.637 0 2.692-1.054 2.739-2.944h-.945c-.047 1.386-.692 2.031-1.794 2.031-1.055 0-1.7-.645-1.7-2.03v-2.724c0-1.385.645-2.03 1.7-2.03 1.102 0 1.731.645 1.779 2.03h.944c-.047-1.889-1.086-2.943-2.723-2.943-1.59 0-2.645 1.054-2.645 2.943v2.723c0 1.89 1.055 2.944 2.645 2.944Zm4.36-.157h.96l2.566-5.18c.268-.55.551-1.133.661-1.495l.032.016a42.63 42.63 0 0 0-.063 2.204v4.455h.929v-8.264h-.961l-2.644 5.383c-.158.33-.409.897-.551 1.228l-.032-.032c.048-.613.032-1.243.032-1.857v-4.722h-.929v8.264Zm10.909-4.376c.614-.425.945-1.087.945-1.669 0-1.354-.913-2.204-2.519-2.204h-2.172v8.249h2.408c1.763 0 2.692-.882 2.692-2.377 0-.819-.504-1.669-1.354-2Zm-2.833-2.991h1.243c1.071 0 1.606.488 1.606 1.322 0 .819-.535 1.322-1.606 1.322h-1.243v-2.644Zm1.479 6.485h-1.479v-2.96h1.479c1.197 0 1.779.536 1.779 1.465 0 .96-.582 1.495-1.779 1.495Zm8.343-7.383v3.542h-3.148v-3.541h-.929v8.264h.929v-3.841h3.148v3.84h.929v-8.264h-.929Zm5.557 8.454c1.653 0 2.755-1.055 2.755-2.991v-2.66c0-1.937-1.102-2.991-2.755-2.991-1.653 0-2.755 1.054-2.755 2.99v2.66c0 1.937 1.102 2.992 2.755 2.992Zm0-.913c-1.118 0-1.81-.646-1.81-2.078v-2.66c0-1.433.692-2.078 1.81-2.078s1.81.645 1.81 2.078v2.66c0 1.432-.692 2.078-1.81 2.078Zm7.178-8.831c1.086 0 1.732-.661 1.779-1.826h-.819c-.047.692-.33 1.039-.96 1.039-.63 0-.913-.347-.96-1.04h-.819c.048 1.166.693 1.827 1.779 1.827Zm-2.55 9.555h.96l2.566-5.18c.268-.55.551-1.133.661-1.495l.032.016a42.63 42.63 0 0 0-.063 2.204v4.455h.928v-8.264h-.96l-2.644 5.383c-.158.33-.41.897-.551 1.228l-.032-.032c.047-.613.032-1.243.032-1.857v-4.722h-.929v8.264Zm13.207.157c1.637 0 2.692-1.054 2.739-2.944h-.944c-.048 1.386-.693 2.031-1.795 2.031-1.055 0-1.7-.645-1.7-2.03v-2.724c0-1.385.645-2.03 1.7-2.03 1.102 0 1.732.645 1.779 2.03h.944c-.047-1.889-1.086-2.943-2.723-2.943-1.59 0-2.644 1.054-2.644 2.943v2.723c0 1.89 1.054 2.944 2.644 2.944Zm8.532-8.421h-5.022v.865h2.047v7.399h.929V47.36h2.046v-.865Zm3.432 8.453c1.652 0 2.754-1.055 2.754-2.991v-2.66c0-1.937-1.102-2.991-2.754-2.991-1.653 0-2.755 1.054-2.755 2.99v2.66c0 1.937 1.102 2.992 2.755 2.992Zm0-.913c-1.118 0-1.811-.646-1.811-2.078v-2.66c0-1.433.693-2.078 1.811-2.078 1.117 0 1.81.645 1.81 2.078v2.66c0 1.432-.693 2.078-1.81 2.078Zm10.058-7.54-1.684 3.762c-.173.44-.362.866-.535 1.306h-.032c-.173-.44-.362-.866-.535-1.306l-1.684-3.762h-.96v8.264h.897v-4.55c0-.802-.063-1.4-.079-2.03l.047-.016c.221.63.457 1.29.724 1.905l1.134 2.518h.944l1.134-2.518a27.91 27.91 0 0 0 .724-1.905l.047.016c-.016.63-.079 1.228-.079 2.03v4.55h.898v-8.264h-.961Zm5.463-.19c-1.527 0-2.55.93-2.613 2.346h.928c.063-.913.709-1.448 1.653-1.448 1.071 0 1.637.645 1.637 1.857v.882h-1.637c-1.81 0-2.833.881-2.833 2.471 0 1.606 1.102 2.535 2.613 2.535.897 0 1.527-.41 1.905-.96l.078.77h.803v-5.713c0-1.685-.96-2.74-2.534-2.74Zm-.11 7.73c-1.071 0-1.811-.52-1.811-1.606 0-1.055.646-1.621 1.858-1.621h1.668v1.621c0 .944-.661 1.606-1.715 1.606Zm8.705-7.54h-5.022v.865h2.046v7.399h.929V47.36h2.047v-.865Zm3.431 8.453c1.653 0 2.755-1.055 2.755-2.991v-2.66c0-1.937-1.102-2.991-2.755-2.991-1.653 0-2.755 1.054-2.755 2.99v2.66c0 1.937 1.102 2.992 2.755 2.992Zm0-.913c-1.117 0-1.81-.646-1.81-2.078v-2.66c0-1.433.693-2.078 1.81-2.078 1.118 0 1.81.645 1.81 2.078v2.66c0 1.432-.692 2.078-1.81 2.078Zm3.668.787c1.48 0 2.031-1.26 2.172-3.747.048-.897.126-2.471.158-3.699h2.408v7.383h.929v-8.264h-4.25c-.032 1.542-.063 2.912-.158 4.439-.11 1.652-.283 2.99-1.259 2.99v.898Zm10.295.126c1.653 0 2.755-1.055 2.755-2.991v-2.66c0-1.937-1.102-2.991-2.755-2.991-1.653 0-2.755 1.054-2.755 2.99v2.66c0 1.937 1.102 2.992 2.755 2.992Zm0-.913c-1.118 0-1.81-.646-1.81-2.078v-2.66c0-1.433.692-2.078 1.81-2.078s1.81.645 1.81 2.078v2.66c0 1.432-.692 2.078-1.81 2.078Zm8.736-7.54h-4.108v8.264h.929v-7.367h3.179v-.898Zm1.275 8.264h.961l2.566-5.18c.267-.55.551-1.133.661-1.495l.031.016c-.031.661-.063 1.338-.063 2.204v4.455h.929v-8.264h-.96l-2.645 5.383c-.157.33-.409.897-.551 1.228l-.031-.032c.047-.613.031-1.243.031-1.857v-4.722h-.929v8.264Zm7.163 0h.96l2.566-5.18c.268-.55.551-1.133.661-1.495l.032.016a42.63 42.63 0 0 0-.063 2.204v4.455h.928v-8.264h-.96l-2.644 5.383c-.158.33-.41.897-.551 1.228l-.032-.032c.047-.613.032-1.243.032-1.857v-4.722h-.929v8.264ZM17.477 39.998l.006.006-.006-.006ZM49.642.027c.074.037.13.11.138.2l-.138-.2Zm-41.03 30.2 8.768 2.175-3.117-9.231-11.13-11.105L8.61 30.228ZM30.14 12.352l9.902-.953-4.471-2.376-5.43 3.329Zm9.934-.45-10.772 1.037-1.018 8.322 11.79-9.36ZM36.07 8.716l4.705 2.5 3.077-7.27-7.782 4.77Zm-7.056 3.614 2.809-4.51-13.428-4.225 10.619 8.735Zm3.084-4.952.357-.573-5.807-4.182L21.5 1.248l-3.092 1.445-.482.226 14.172 4.459Zm.624-1.002 2.631-4.224a.252.252 0 0 1 .163-.114l.007-.001L40.986.89h.004l.003-.001.009-.002.01-.001.01-.002h.002l.017-.002 8.463-.88a.249.249 0 0 1 .138.025l8.651 4.249c.031.012.059.03.082.053l.002.002.006.006.002.003c.017.018.03.039.041.06l.002.006 3.675 6.967v.002h.001v.002l.002.001v.002l.002.002v.002l.001.002.001.002.001.002v.001l.002.002v.002l.001.002.001.002v.002l.001.002.001.002v.002l.002.001v.002l.001.002v.002l.001.002v.002l.001.002v.002l.001.002v.002h.001v.002l.001.002v.002l.001.002v.004h.001v.002l.001.002v.006l.001.002v.005l.001.002v.006l.001.002v.017h.001v.032l-.001.002v.006l-.001.003v.006l-.002.006v.003l-.001.003-.001.005-1.918 8.055a.252.252 0 0 1-.012.039l-7.78 23.194v.003l-.001.003-.001.003-.008.022v.002l-.011.022h-.001l-.003.005v.002l-.002.003-.004.006-.007.01v.001l-.003.003v.001l-.005.005-.004.005-.001.002-.003.003-.003.004-.002.001-12.65 14.72a.25.25 0 0 1-.092.068l-.003.002-.006.002-.003.001-.006.002h-.002l-.004.002h-.002l-.012.004-.004.001h-.002l-.004.001h-.001l-.005.002h-.007l-.006.001-.006.001h-.006l-.006.001h-.036l-.007-.001h-.006l-.017-.004-.006-.001-.006-.002-.006-.001-.006-.002-.017-.006-.006-.002-.005-.003h-.001l-.01-.005H39.4l-.004-.003h-.002l-.004-.003-.005-.003-.002-.001-.003-.002-.002-.002-.003-.002-.002-.001-.003-.002-.003-.002-.002-.002-.003-.002-.002-.002-.003-.002-.002-.001-.003-.003-.001-.001-.004-.003v-.001l-.004-.003-.001-.001-.004-.004-.005-.005-.004-.004-.004-.005-.004-.005-.004-.005-.004-.005-.004-.005-.003-.005-.004-.005v-.001l-.003-.005-.003-.005v-.001l-.003-.004v-.002l-.002-.002-7.926-15.178-9.54 15.433a.252.252 0 0 1-.435.013l-6.75-10.816-.002-.002v-.001l-.002-.003v-.001l-.003-.005-.001-.002-.001-.002-.003-.004v-.002l-.006-.013-.002-.002L1.743 19.735l-.002-.002-.001-.003v-.001a.252.252 0 0 1-.02-.056L.006 11.456l-.003-.023L0 11.428v-.044l.001-.006v-.001l.002-.011v-.007l.002-.005v-.002l.001-.005.01-.03.001-.006.003-.005.005-.013L3.48 4.245l.003-.006.001-.002v-.001l.001-.002.004-.006.001-.002.003-.005V4.22h.001l.001-.002.001-.002.005-.006.002-.003v-.002h.001l.002-.003.001-.002.002-.002.001-.002.002-.002.001-.001.002-.003.001-.001.002-.003h.001l.003-.004.003-.004.004-.003.003-.003.004-.004.003-.003.001-.001.003-.002V4.16l.003-.003h.002l.002-.003.002-.001.002-.002.002-.001.002-.002.002-.002h.001l.003-.003h.002l.003-.002V4.14h.001l.003-.002.002-.001.002-.002.005-.003.004-.002.004-.003h.001l.004-.002.004-.002H3.6l.003-.002 8.63-4.016a.25.25 0 0 1 .124-.022l9.138.646a.22.22 0 0 1 .057.01l.006.002 5.263 1.406c.037.01.07.026.096.05l5.805 4.18Zm3.003-3.866-2.593 4.162 2.44 1.758 8.347-5.116-2.917-1.911-5.277 1.107Zm-2.86 4.59-.27.434 1.55.488-1.28-.922Zm-.545.876-2.465 3.958 5.103-3.128-2.638-.83ZM49.484.51l-7.7.801 2.69 1.763L56.88 4.143 49.484.51ZM41.28 11.312l17.015-.178-6.075-3.288-7.707-4.172-3.233 7.638Zm17.396.321-17.392.182L46.72 24.13l11.956-12.496Zm-13.1-7.957 13.368 7.236-.965-6.168-12.403-1.068ZM58.68 5.964l.808 5.169 1.963.086-2.771-5.255Zm1.4 11.99 1.483-6.225-2.016-.09.533 6.315ZM46.871 24.7l-2.03 8.01 8.892-2.486 5.971-10.732-.636-7.538L46.87 24.7ZM44.7 33.273l-2.464 9.723 10.897-12.08-2.954.825-5.479 1.532Zm-3.06 10.015 2.499-9.86-7.411 2.07 4.912 7.79Zm2.641-10.424 1.882-7.425-9.012 9.418 7.13-1.993Zm2.063-8.342-5.35-12.115-4.25 22.149 9.6-10.034Zm12.513-2.474-4.712 8.47-1.344 9.587 6.056-18.057ZM39.909 56.655 51.566 43.09l-9.608 1.06-2.049 12.504ZM51.951 42.54l1.587-11.323-1.276 1.414-9.89 10.965 9.58-1.056Zm-20.102-.269 7.54 14.44 2.063-12.59-9.603-1.85Zm-.021-.517 9.389 1.808-4.9-7.772-4.49 5.964Zm-4.96-6.592L31.39 41.5l4.457-5.923-8.979-.414Zm4.135 6.662-4.567-6.4-3.699 10.254 6.51-3.035 1.756-.819Zm-2.881-19.243-1.477 12.066 9.224.426-7.747-12.492ZM25.95 34.12l-4.41-21.767-6.737 10.645L25.95 34.12Zm.35-.806 1.397-11.417-5.51-8.885L26.3 33.314ZM27.795 21.1l1-8.176-6.636-.912 5.636 9.088Zm-5.967-9.642 6.4.88-10.226-8.412 3.826 7.532Zm6.463 10.441 7.918 12.769 4.315-22.48-12.233 9.711Zm-5.989 23.503 3.728-10.336-7.878-1.953 4.15 12.289Zm-.386 11.364 8.81-14.254-8.189 3.819-.621 10.435Zm-6.634-9.624 6.118 9.803.626-10.499-6.744.696Zm2.678-14.596 7.581 1.88L15.064 23.97l2.896 8.574Zm3.665 12.422-4.053-11.999-8.413-2.085 8.318 9.115.013.014 4.135 4.955Zm-7.188-22.334 6.776-10.705-17.986-.48 11.21 11.185ZM9.14 31.611l5.879 15.05 6.779-.699-4.695-5.626-7.963-8.725Zm2.8 8.556-3.42-8.755-.337-.865-3.759-6.31 7.516 15.93ZM2.225 19.562l5.351 8.982-2.96-9.814-1.864-6.178-.527 7.01Zm-1.67-7.934 1.294 6.195.479-6.364-1.772.17ZM3.19 5.982.676 11.11l1.709-.163.805-4.966Zm.737-1.401-1.03 6.355 18.35.49-4.161-8.193L3.927 4.581Zm5.747-1.095 7.492-.767.35-.164 2.976-1.392-8.105-.572-7.213 3.355 4.5-.46Z" fill="#32393C"/><path d="M73.585 34.883V4.437c1.92-.32 4.435-.594 7.635-.594 3.931 0 6.811.914 8.64 2.56 1.691 1.462 2.697 3.702 2.697 6.445 0 2.789-.823 4.983-2.377 6.583-2.103 2.24-5.532 3.383-9.418 3.383-1.188 0-2.285-.046-3.2-.274v12.343h-3.977Zm3.977-27.566v11.977c.869.229 1.966.32 3.292.32 4.8 0 7.726-2.331 7.726-6.583 0-4.068-2.88-6.034-7.269-6.034-1.737 0-3.063.137-3.749.32Zm19.502 27.566V19.66c0-2.606-.045-4.846-.182-6.903h3.52l.137 4.343h.183c1.005-2.972 3.428-4.846 6.125-4.846.458 0 .778.046 1.143.137v3.795a6.036 6.036 0 0 0-1.371-.138c-2.834 0-4.846 2.149-5.394 5.166-.092.549-.183 1.189-.183 1.875v11.794h-3.978Zm23.881-22.629c6.355 0 10.652 4.617 10.652 11.383 0 8.183-5.669 11.749-11.018 11.749-5.988 0-10.605-4.389-10.605-11.383 0-7.406 4.845-11.749 10.971-11.749Zm-.091 3.017c-4.755 0-6.812 4.389-6.812 8.595 0 4.846 2.789 8.503 6.72 8.503 3.84 0 6.72-3.612 6.72-8.595 0-3.748-1.874-8.503-6.628-8.503ZM136.8 34.792V4.482a56.973 56.973 0 0 1 8.458-.64c5.714 0 9.783 1.326 12.48 3.84 2.743 2.515 4.343 6.08 4.343 11.064 0 5.028-1.554 9.143-4.435 11.977-2.88 2.88-7.634 4.434-13.623 4.434-2.834 0-5.211-.137-7.223-.365Zm3.978-27.384v24.32c1.005.183 2.468.23 4.023.23 8.503 0 13.12-4.755 13.12-13.075.045-7.269-4.069-11.886-12.48-11.886-2.058 0-3.612.183-4.663.411Zm44.294 17.143h-15.543c.091 5.44 3.566 7.68 7.588 7.68 2.881 0 4.618-.502 6.126-1.142l.686 2.88c-1.417.64-3.84 1.371-7.36 1.371-6.812 0-10.88-4.48-10.88-11.154 0-6.675 3.931-11.932 10.377-11.932 7.223 0 9.143 6.354 9.143 10.423 0 .823-.091 1.463-.137 1.874Zm-15.497-2.88h11.748c.046-2.56-1.051-6.537-5.577-6.537-4.069 0-5.851 3.749-6.171 6.537Zm20.616 13.212V18.746c0-2.286-.046-4.16-.183-5.99h3.566l.228 3.658h.092c1.097-2.103 3.657-4.16 7.314-4.16 3.063 0 7.817 1.829 7.817 9.417v13.212h-4.022V22.128c0-3.565-1.326-6.537-5.121-6.537-2.651 0-4.708 1.875-5.394 4.115-.183.503-.274 1.188-.274 1.874v13.303h-4.023Zm26.093-27.429 3.932-1.051v6.354h5.76v3.063h-5.76v11.93c0 2.743.777 4.298 3.017 4.298 1.051 0 1.828-.137 2.331-.275l.183 3.018c-.777.32-2.011.548-3.566.548-1.874 0-3.383-.594-4.343-1.691-1.142-1.189-1.554-3.155-1.554-5.76v-12.07h-3.428v-3.062h3.428V7.454Zm44.754 23.269.823 3.154c-1.463.732-4.389 1.463-8.138 1.463-8.686 0-15.223-5.486-15.223-15.589 0-9.646 6.537-16.183 16.092-16.183 3.84 0 6.263.823 7.314 1.372l-.96 3.245c-1.508-.731-3.657-1.28-6.217-1.28-7.223 0-12.023 4.618-12.023 12.71 0 7.542 4.343 12.388 11.84 12.388 2.423 0 4.892-.503 6.492-1.28Zm14.552-18.469c6.355 0 10.652 4.617 10.652 11.383 0 8.183-5.669 11.749-11.017 11.749-5.989 0-10.606-4.389-10.606-11.383 0-7.406 4.846-11.749 10.971-11.749Zm-.091 3.017c-4.754 0-6.812 4.389-6.812 8.595 0 4.846 2.789 8.503 6.721 8.503 3.84 0 6.72-3.612 6.72-8.595 0-3.748-1.875-8.503-6.629-8.503Zm15.809 19.612V18.746c0-2.286-.045-4.16-.182-5.99h3.565l.229 3.658h.091c1.098-2.103 3.658-4.16 7.315-4.16 3.063 0 7.817 1.829 7.817 9.417v13.212h-4.023V22.128c0-3.565-1.326-6.537-5.12-6.537-2.651 0-4.709 1.875-5.394 4.115-.183.503-.275 1.188-.275 1.874v13.303h-4.023Zm40.444-3.84.686 3.017c-1.052.549-3.383 1.28-6.355 1.28-6.674 0-11.017-4.526-11.017-11.292 0-6.811 4.663-11.748 11.886-11.748 2.377 0 4.48.594 5.577 1.143l-.914 3.108c-.96-.548-2.469-1.051-4.663-1.051-5.074 0-7.817 3.748-7.817 8.366 0 5.12 3.291 8.274 7.68 8.274 2.285 0 3.794-.594 4.937-1.097Zm22.921-6.492H339.13c.091 5.44 3.565 7.68 7.588 7.68 2.88 0 4.617-.502 6.126-1.142l.686 2.88c-1.417.64-3.84 1.371-7.36 1.371-6.812 0-10.881-4.48-10.881-11.154 0-6.675 3.932-11.932 10.378-11.932 7.223 0 9.143 6.354 9.143 10.423 0 .823-.092 1.463-.137 1.874Zm-15.498-2.88h11.749c.046-2.56-1.051-6.537-5.577-6.537-4.069 0-5.852 3.749-6.172 6.537Zm20.617 22.264V19.98c0-2.834-.092-5.12-.183-7.223h3.611l.183 3.794h.092c1.645-2.697 4.251-4.297 7.863-4.297 5.348 0 9.371 4.526 9.371 11.246 0 7.954-4.846 11.886-10.057 11.886-2.926 0-5.486-1.28-6.812-3.475h-.091v12.024h-3.977Zm3.977-21.852v3.794c0 .594.091 1.143.183 1.646.731 2.788 3.154 4.708 6.034 4.708 4.252 0 6.72-3.474 6.72-8.548 0-4.434-2.331-8.229-6.583-8.229-2.743 0-5.303 1.966-6.08 4.983-.137.503-.274 1.097-.274 1.646Zm22.964-14.629 3.932-1.051v6.354h5.76v3.063h-5.76v11.93c0 2.743.777 4.298 3.017 4.298 1.051 0 1.828-.137 2.331-.275l.183 3.018c-.777.32-2.011.548-3.566.548-1.874 0-3.383-.594-4.343-1.691-1.142-1.189-1.554-3.155-1.554-5.76v-12.07h-3.428v-3.062h3.428V7.454Z" fill="#32393C"/></svg>