<svg width="397" height="58" viewBox="0 0 397 58" fill="none" xmlns="http://www.w3.org/2000/svg">
<path fill-rule="evenodd" clip-rule="evenodd" d="M74.8925 56.569H75.8055V53.8772H74.8925V46.4945H73.9638V53.8772H70.8784V46.4945H69.9497V54.7588H74.8925V56.569ZM81.6141 52.2244C81.4882 53.4365 80.89 54.0032 79.6937 54.0032C78.6075 54.0032 77.9464 53.3578 77.9464 51.9725V51.0753H82.4327V49.2493C82.4327 47.3603 81.3308 46.3056 79.6779 46.3056C78.0723 46.3056 77.0019 47.3603 77.0019 49.2493V51.9725C77.0019 53.8615 78.0565 54.9162 79.6622 54.9162C81.3937 54.9162 82.4169 53.956 82.5429 52.2244H81.6141ZM79.6937 47.2186C80.8271 47.2186 81.5039 47.864 81.5039 49.2493V50.2095H77.9464V49.2493C77.9464 47.864 78.6075 47.2186 79.6937 47.2186ZM88.3672 46.4945V50.0363H85.2189V46.4945H84.2902V54.7588H85.2189V50.9178H88.3672V54.7588H89.2959V46.4945H88.3672ZM95.5453 46.4945H90.5238V47.3603H92.5702V54.7588H93.4989V47.3603H95.5453V46.4945ZM99.6066 46.3056C98.8038 46.3056 98.0954 46.6519 97.6547 47.2658L97.5287 46.4945H96.7732V57.5922H97.6861V54.0189C98.1427 54.6486 98.8668 54.9477 99.6066 54.9477C101.197 54.9477 102.172 53.893 102.172 51.8466V49.4697C102.172 47.376 101.102 46.3056 99.6066 46.3056ZM101.228 51.8466C101.228 53.4208 100.614 54.0819 99.402 54.0819C98.363 54.0819 97.6861 53.1689 97.6861 51.8466V49.4382C97.6861 47.8955 98.4575 47.1714 99.402 47.1714C100.551 47.1714 101.228 47.8483 101.228 49.4697V51.8466ZM112.656 46.4945H107.651V54.7588H108.579V47.376H111.728V54.7588H112.656V46.4945ZM117.568 46.3056C116.765 46.3056 116.056 46.6519 115.616 47.2658L115.49 46.4945H114.734V57.5922H115.647V54.0189C116.104 54.6486 116.828 54.9477 117.568 54.9477C119.158 54.9477 120.133 53.893 120.133 51.8466V49.4697C120.133 47.376 119.063 46.3056 117.568 46.3056ZM119.189 51.8466C119.189 53.4208 118.575 54.0819 117.363 54.0819C116.324 54.0819 115.647 53.1689 115.647 51.8466V49.4382C115.647 47.8955 116.418 47.1714 117.363 47.1714C118.512 47.1714 119.189 47.8483 119.189 49.4697V51.8466ZM124.557 54.9477C126.21 54.9477 127.312 53.893 127.312 51.9568V49.2965C127.312 47.3603 126.21 46.3056 124.557 46.3056C122.904 46.3056 121.802 47.3603 121.802 49.2965V51.9568C121.802 53.893 122.904 54.9477 124.557 54.9477ZM124.557 54.0347C123.439 54.0347 122.747 53.3893 122.747 51.9568V49.2965C122.747 47.864 123.439 47.2186 124.557 47.2186C125.674 47.2186 126.367 47.864 126.367 49.2965V51.9568C126.367 53.3893 125.674 54.0347 124.557 54.0347ZM133.293 46.4945H129.185V54.7588H130.114V47.3918H133.293V46.4945ZM137.402 46.3056C136.599 46.3056 135.891 46.6519 135.45 47.2658L135.324 46.4945H134.568V57.5922H135.481V54.0189C135.938 54.6486 136.662 54.9477 137.402 54.9477C138.992 54.9477 139.968 53.893 139.968 51.8466V49.4697C139.968 47.376 138.897 46.3056 137.402 46.3056ZM139.023 51.8466C139.023 53.4208 138.409 54.0819 137.197 54.0819C136.158 54.0819 135.481 53.1689 135.481 51.8466V49.4382C135.481 47.8955 136.253 47.1714 137.197 47.1714C138.346 47.1714 139.023 47.8483 139.023 49.4697V51.8466ZM146.249 52.2244C146.123 53.4365 145.524 54.0032 144.328 54.0032C143.242 54.0032 142.581 53.3578 142.581 51.9725V51.0753H147.067V49.2493C147.067 47.3603 145.965 46.3056 144.312 46.3056C142.707 46.3056 141.636 47.3603 141.636 49.2493V51.9725C141.636 53.8615 142.691 54.9162 144.297 54.9162C146.028 54.9162 147.051 53.956 147.177 52.2244H146.249ZM144.328 47.2186C145.461 47.2186 146.138 47.864 146.138 49.2493V50.2095H142.581V49.2493C142.581 47.864 143.242 47.2186 144.328 47.2186ZM151.365 54.9162C153.002 54.9162 154.056 53.8615 154.104 51.9725H153.159C153.112 53.3578 152.466 54.0032 151.365 54.0032C150.31 54.0032 149.664 53.3578 149.664 51.9725V49.2493C149.664 47.864 150.31 47.2186 151.365 47.2186C152.466 47.2186 153.096 47.864 153.143 49.2493H154.088C154.041 47.3603 153.002 46.3056 151.365 46.3056C149.775 46.3056 148.72 47.3603 148.72 49.2493V51.9725C148.72 53.8615 149.775 54.9162 151.365 54.9162ZM158.165 54.9162C159.802 54.9162 160.857 53.8615 160.904 51.9725H159.959C159.912 53.3578 159.267 54.0032 158.165 54.0032C157.11 54.0032 156.465 53.3578 156.465 51.9725V49.2493C156.465 47.864 157.11 47.2186 158.165 47.2186C159.267 47.2186 159.896 47.864 159.944 49.2493H160.888C160.841 47.3603 159.802 46.3056 158.165 46.3056C156.575 46.3056 155.52 47.3603 155.52 49.2493V51.9725C155.52 53.8615 156.575 54.9162 158.165 54.9162ZM162.525 54.7588H163.485L166.051 49.5798C166.319 49.0289 166.602 48.4465 166.712 48.0844L166.744 48.1001C166.712 48.7613 166.681 49.4382 166.681 50.3039V54.7588H167.61V46.4945H166.649L164.005 51.8781C163.847 52.2086 163.596 52.7753 163.454 53.1059L163.422 53.0744C163.47 52.4605 163.454 51.8309 163.454 51.2169V46.4945H162.525V54.7588ZM173.434 50.3826C174.048 49.9576 174.379 49.2965 174.379 48.7141C174.379 47.3603 173.466 46.5102 171.86 46.5102H169.688V54.7588H172.096C173.859 54.7588 174.788 53.8772 174.788 52.3818C174.788 51.5633 174.284 50.7132 173.434 50.3826ZM170.601 47.3918H171.844C172.915 47.3918 173.45 47.8798 173.45 48.7141C173.45 49.5326 172.915 50.0363 171.844 50.0363H170.601V47.3918ZM172.08 53.8772H170.601V50.9178H172.08C173.277 50.9178 173.859 51.4531 173.859 52.3818C173.859 53.342 173.277 53.8772 172.08 53.8772ZM180.423 46.4945V50.0363H177.275V46.4945H176.346V54.7588H177.275V50.9178H180.423V54.7588H181.352V46.4945H180.423ZM185.98 54.9477C187.633 54.9477 188.735 53.893 188.735 51.9568V49.2965C188.735 47.3603 187.633 46.3056 185.98 46.3056C184.327 46.3056 183.225 47.3603 183.225 49.2965V51.9568C183.225 53.893 184.327 54.9477 185.98 54.9477ZM185.98 54.0347C184.862 54.0347 184.17 53.3893 184.17 51.9568V49.2965C184.17 47.864 184.862 47.2186 185.98 47.2186C187.098 47.2186 187.79 47.864 187.79 49.2965V51.9568C187.79 53.3893 187.098 54.0347 185.98 54.0347ZM193.158 45.2037C194.244 45.2037 194.89 44.5426 194.937 43.3777H194.118C194.071 44.0703 193.788 44.4166 193.158 44.4166C192.528 44.4166 192.245 44.0703 192.198 43.3777H191.379C191.427 44.5426 192.072 45.2037 193.158 45.2037ZM190.608 54.7588H191.568L194.134 49.5798C194.402 49.0289 194.685 48.4465 194.795 48.0844L194.827 48.1001C194.795 48.7613 194.764 49.4382 194.764 50.3039V54.7588H195.692V46.4945H194.732L192.088 51.8781C191.93 52.2086 191.678 52.7753 191.537 53.1059L191.505 53.0744C191.552 52.4605 191.537 51.8309 191.537 51.2169V46.4945H190.608V54.7588ZM203.815 54.9162C205.452 54.9162 206.507 53.8615 206.554 51.9725H205.61C205.562 53.3578 204.917 54.0032 203.815 54.0032C202.76 54.0032 202.115 53.3578 202.115 51.9725V49.2493C202.115 47.864 202.76 47.2186 203.815 47.2186C204.917 47.2186 205.547 47.864 205.594 49.2493H206.538C206.491 47.3603 205.452 46.3056 203.815 46.3056C202.225 46.3056 201.171 47.3603 201.171 49.2493V51.9725C201.171 53.8615 202.225 54.9162 203.815 54.9162ZM212.347 46.4945H207.325V47.3603H209.372V54.7588H210.301V47.3603H212.347V46.4945ZM215.779 54.9477C217.431 54.9477 218.533 53.893 218.533 51.9568V49.2965C218.533 47.3603 217.431 46.3056 215.779 46.3056C214.126 46.3056 213.024 47.3603 213.024 49.2965V51.9568C213.024 53.893 214.126 54.9477 215.779 54.9477ZM215.779 54.0347C214.661 54.0347 213.968 53.3893 213.968 51.9568V49.2965C213.968 47.864 214.661 47.2186 215.779 47.2186C216.896 47.2186 217.589 47.864 217.589 49.2965V51.9568C217.589 53.3893 216.896 54.0347 215.779 54.0347ZM225.837 46.4945L224.153 50.2567C223.98 50.6975 223.791 51.1225 223.618 51.5633H223.586C223.413 51.1225 223.224 50.6975 223.051 50.2567L221.367 46.4945H220.407V54.7588H221.304V50.2095C221.304 49.4067 221.241 48.8085 221.225 48.1788L221.272 48.1631C221.493 48.7928 221.729 49.4539 221.996 50.0678L223.13 52.5864H224.074L225.208 50.0678C225.475 49.4539 225.712 48.7928 225.932 48.1631L225.979 48.1788C225.963 48.8085 225.9 49.4067 225.9 50.2095V54.7588H226.798V46.4945H225.837ZM231.3 46.3056C229.773 46.3056 228.75 47.2343 228.687 48.6511H229.615C229.678 47.7381 230.324 47.2029 231.268 47.2029C232.339 47.2029 232.905 47.8483 232.905 49.0604V49.9419H231.268C229.458 49.9419 228.435 50.8234 228.435 52.4133C228.435 54.0189 229.537 54.9477 231.048 54.9477C231.945 54.9477 232.575 54.5384 232.953 53.9874L233.031 54.7588H233.834V49.0446C233.834 47.3603 232.874 46.3056 231.3 46.3056ZM231.19 54.0347C230.119 54.0347 229.379 53.5152 229.379 52.429C229.379 51.3744 230.025 50.8077 231.237 50.8077H232.905V52.429C232.905 53.3735 232.244 54.0347 231.19 54.0347ZM239.895 46.4945H234.873V47.3603H236.919V54.7588H237.848V47.3603H239.895V46.4945ZM243.326 54.9477C244.979 54.9477 246.081 53.893 246.081 51.9568V49.2965C246.081 47.3603 244.979 46.3056 243.326 46.3056C241.673 46.3056 240.571 47.3603 240.571 49.2965V51.9568C240.571 53.893 241.673 54.9477 243.326 54.9477ZM243.326 54.0347C242.209 54.0347 241.516 53.3893 241.516 51.9568V49.2965C241.516 47.864 242.209 47.2186 243.326 47.2186C244.444 47.2186 245.136 47.864 245.136 49.2965V51.9568C245.136 53.3893 244.444 54.0347 243.326 54.0347ZM246.994 54.8217C248.474 54.8217 249.025 53.5624 249.166 51.0753C249.214 50.178 249.292 48.6038 249.324 47.376H251.732V54.7588H252.661V46.4945H248.411C248.379 48.0372 248.348 49.4067 248.253 50.9336C248.143 52.5864 247.97 53.9245 246.994 53.9245V54.8217ZM257.289 54.9477C258.942 54.9477 260.044 53.893 260.044 51.9568V49.2965C260.044 47.3603 258.942 46.3056 257.289 46.3056C255.636 46.3056 254.534 47.3603 254.534 49.2965V51.9568C254.534 53.893 255.636 54.9477 257.289 54.9477ZM257.289 54.0347C256.171 54.0347 255.479 53.3893 255.479 51.9568V49.2965C255.479 47.864 256.171 47.2186 257.289 47.2186C258.407 47.2186 259.099 47.864 259.099 49.2965V51.9568C259.099 53.3893 258.407 54.0347 257.289 54.0347ZM266.025 46.4945H261.917V54.7588H262.846V47.3918H266.025V46.4945ZM267.3 54.7588H268.261L270.827 49.5798C271.094 49.0289 271.378 48.4465 271.488 48.0844L271.519 48.1001C271.488 48.7613 271.456 49.4382 271.456 50.3039V54.7588H272.385V46.4945H271.425L268.78 51.8781C268.623 52.2086 268.371 52.7753 268.229 53.1059L268.198 53.0744C268.245 52.4605 268.229 51.8309 268.229 51.2169V46.4945H267.3V54.7588ZM274.463 54.7588H275.423L277.989 49.5798C278.257 49.0289 278.54 48.4465 278.65 48.0844L278.682 48.1001C278.65 48.7613 278.619 49.4382 278.619 50.3039V54.7588H279.547V46.4945H278.587L275.943 51.8781C275.785 52.2086 275.533 52.7753 275.392 53.1059L275.36 53.0744C275.407 52.4605 275.392 51.8309 275.392 51.2169V46.4945H274.463V54.7588Z" fill="#32393C"/>
<path fill-rule="evenodd" clip-rule="evenodd" d="M17.4773 39.9977L17.4826 40.0035L17.4773 39.9977ZM49.642 0.0268872C49.7164 0.0643194 49.7712 0.137335 49.7802 0.226102L49.642 0.0268872ZM8.6112 30.2278L17.3804 32.4016L14.2627 23.171L3.13258 12.0657L8.6112 30.2278ZM30.1403 12.351L40.0424 11.3981L35.5705 9.02246L30.1403 12.351ZM40.0741 11.9006L29.3022 12.9376L28.2838 21.2597L40.0741 11.9006ZM36.0704 8.71606L40.7748 11.2153L43.8516 3.94656L43.8514 3.94674L36.0704 8.71606ZM29.0138 12.3302L31.8228 7.82001L18.3952 3.59537L29.0138 12.3302ZM32.0983 7.37781L32.4552 6.80491L26.6482 2.62262L21.5005 1.24796L18.4079 2.69338L17.9256 2.91878L32.0983 7.37781ZM32.7222 6.37641L35.3535 2.15179C35.3915 2.09083 35.4512 2.05176 35.5165 2.03806L35.5233 2.03663L40.9865 0.89063L40.99 0.889806L40.9935 0.888983L41.0017 0.887345L41.0113 0.885505L41.0115 0.885322L41.0223 0.883693H41.0239L41.0405 0.882055L49.5039 0.00133458C49.553 -0.00378148 49.6006 0.00602942 49.642 0.0268872L58.2935 4.27587C58.3242 4.28835 58.3518 4.30675 58.3749 4.32925L58.3765 4.3311L58.3826 4.33723L58.3851 4.34009C58.4015 4.3583 58.4156 4.37875 58.426 4.40063L58.4285 4.40554L58.4286 4.406L62.1035 11.373H62.103L62.1039 11.3746L62.104 11.3748L62.1049 11.3767L62.1059 11.3783L62.1067 11.3801L62.1075 11.382L62.1086 11.3838L62.1092 11.3857H62.1094L62.1102 11.3875L62.111 11.3896L62.1118 11.3912V11.3914L62.1127 11.3932L62.1135 11.3951L62.1141 11.3969L62.115 11.3989L62.1158 11.4008L62.1164 11.4026L62.1172 11.4047L62.1179 11.4065L62.1185 11.4084V11.4085L62.1187 11.4092L62.1194 11.4104L62.12 11.4125L62.1204 11.4141L62.1205 11.4143L62.1212 11.4163L62.1218 11.4182L62.1222 11.42L62.1224 11.4202L62.1227 11.4222L62.1234 11.4241L62.1238 11.4259L62.124 11.4261L62.1245 11.4281L62.1251 11.4302L62.1256 11.432V11.4322L62.126 11.4341L62.1267 11.4361L62.1269 11.4381H62.127L62.1275 11.4402L62.128 11.4422L62.1281 11.4443H62.1283L62.1285 11.4463L62.1289 11.4484L62.1293 11.4504L62.1295 11.4525L62.1299 11.4547L62.1301 11.4565V11.4567L62.1304 11.4588L62.1306 11.4608L62.1308 11.4629L62.131 11.4651L62.1312 11.4672L62.1313 11.4692L62.1315 11.4712L62.1317 11.4735V11.4755L62.1319 11.4778V11.4798V11.4819H62.1321V11.4841V11.4862V11.4884V11.4905V11.4927V11.4948V11.497L62.1319 11.4991V11.5013L62.1317 11.5044L62.1315 11.5075V11.5079L62.1313 11.5104L62.1312 11.5134V11.5143L62.131 11.5163L62.1306 11.5194L62.1304 11.5206L62.1302 11.5222L62.1298 11.5253L62.1296 11.5269L62.1294 11.5282L62.1291 11.5312L62.128 11.537L62.1276 11.5396L62.1274 11.5398L62.1267 11.5427L62.1257 11.5484L62.1264 11.5486L60.2081 19.6031C60.205 19.6164 60.2007 19.6293 60.1956 19.6417L52.4168 42.836L52.4157 42.8391L52.4149 42.8423L52.4139 42.8454L52.4063 42.8667L52.4051 42.8693L52.3945 42.8906L52.394 42.8916L52.3914 42.8961L52.3905 42.8978L52.3887 42.9008L52.385 42.9067H52.3848L52.3779 42.917L52.3771 42.9184L52.3754 42.9209L52.3742 42.9221L52.3703 42.9268L52.3664 42.9317L52.365 42.9335L52.3623 42.9368L52.3591 42.9407L52.3574 42.9423L39.7075 57.6624C39.6813 57.6929 39.6494 57.7158 39.6148 57.7303L39.6122 57.7315L39.6064 57.7338L39.603 57.735L39.597 57.737L39.595 57.7379L39.5909 57.7391L39.589 57.7397L39.5774 57.743L39.5729 57.744L39.5715 57.7445L39.5667 57.7453L39.5657 57.7458L39.5608 57.7466L39.5596 57.7468L39.5547 57.7476L39.5537 57.7478L39.5485 57.7484L39.5477 57.7486L39.5424 57.7492L39.5418 57.7494L39.5362 57.7499H39.5356L39.5301 57.7502H39.5296L39.5241 57.7504H39.5235H39.5179L39.4997 57.7501H39.4994L39.4936 57.7496H39.4932L39.4874 57.749H39.4873L39.4815 57.7481H39.4812L39.4638 57.7451H39.4631L39.4578 57.7436H39.4572L39.4519 57.7422H39.4512L39.4461 57.7406H39.4455L39.4401 57.7389L39.4232 57.7328L39.4221 57.7326L39.4174 57.7306L39.4119 57.7281L39.4107 57.7277L39.4011 57.7228L39.3997 57.7221L39.3958 57.7201L39.3941 57.7192L39.3904 57.717L39.3851 57.7139L39.3833 57.7129L39.38 57.7107L39.3778 57.7094L39.3749 57.7074L39.3726 57.706L39.37 57.7039L39.3673 57.7023L39.3649 57.7004L39.3622 57.6984L39.3602 57.6965L39.3571 57.6943L39.3553 57.6929L39.3522 57.6902L39.3506 57.6888L39.3473 57.6859L39.3461 57.6847L39.3426 57.6816L39.3416 57.6806L39.3379 57.6771L39.3371 57.6763L39.3334 57.6724L39.3327 57.6718L39.329 57.6679L39.3286 57.6672L39.3249 57.6631L39.3243 57.6625L39.3208 57.6582L39.3203 57.6576L39.3169 57.6533L39.3165 57.6526L39.313 57.6483L39.3126 57.6475L39.3093 57.6432L39.3088 57.6424L39.3058 57.6381L39.3053 57.6373L39.3024 57.6328L39.3018 57.6317L39.2991 57.6275L39.2985 57.6262L39.296 57.6221L39.2952 57.6207L39.293 57.6168L39.2921 57.615L39.2913 57.6133L31.3653 42.4345L21.8259 57.8676C21.8058 57.905 21.7759 57.9379 21.7373 57.9621C21.6191 58.0355 21.4634 57.9991 21.3898 57.8809L14.6392 47.0648H14.6394L14.6382 47.0629L14.6378 47.0619L14.6359 47.0586L14.6353 47.0578L14.6325 47.0525L14.6318 47.0515L14.6316 47.0508L14.6308 47.0494H14.6306L14.6284 47.0451V47.0447L14.6276 47.043H14.6274L14.6216 47.0303L14.6212 47.0297L14.6202 47.0275L1.74257 19.7354L1.74113 19.7327L1.73991 19.7301L1.73954 19.729C1.73115 19.7117 1.72481 19.6926 1.72051 19.6728L0.00468528 11.4555H0.00532628L0.00164648 11.433L0.00100688 11.4281V11.4268L0.000365885 11.4215V11.4207L0.000182942 11.4152V11.4147L0 11.4086V11.4023V11.3963V11.3959L0.000182942 11.3901L0.000365885 11.3895L0.000548827 11.384L0.00073177 11.3832L0.00109765 11.3778L0.0012806 11.377L0.00270922 11.3656L0.00289217 11.3645L0.0037161 11.3594L0.00389905 11.3584L0.00472159 11.3535L0.00508887 11.3525L0.00611391 11.3474L0.00647979 11.3463L0.0150641 11.3171L0.0152471 11.3169L0.0172888 11.3112H0.0174717L0.0197229 11.3057V11.3053L0.0250394 11.2934L3.48022 4.24481L3.48308 4.23888L3.4841 4.23704L3.48456 4.23601L3.48539 4.23438L3.48907 4.22763L3.49009 4.22558L3.49275 4.22129L3.49378 4.21925L3.49414 4.21879L3.49517 4.21695L3.4964 4.21511L3.50069 4.20856L3.50274 4.2057L3.50356 4.20447L3.50438 4.20324L3.50581 4.2014L3.50645 4.20038L3.50728 4.19936L3.50891 4.19731L3.50955 4.19649L3.51019 4.19546L3.51204 4.19321L3.51326 4.19178L3.5153 4.18912L3.51567 4.18875L3.51604 4.18793L3.5185 4.18528L3.51868 4.18491L3.51932 4.18427L3.52198 4.1814L3.52235 4.18076L3.52542 4.17749L3.5256 4.1773L3.52867 4.17404L3.52885 4.17385H3.52903L3.5321 4.17059L3.53228 4.1704L3.53246 4.17022L3.53573 4.16715L3.53637 4.16651L3.53924 4.16385L3.54006 4.16303L3.54271 4.16057H3.5429L3.54392 4.15955L3.54638 4.1573L3.54781 4.15607L3.55006 4.15423L3.55043 4.15405L3.55187 4.15282L3.55391 4.15139L3.55427 4.15094L3.55446 4.15075L3.55589 4.14953L3.55752 4.1483L3.55998 4.14646L3.56141 4.14544L3.56428 4.14339L3.5655 4.14256L3.56614 4.14238L3.5686 4.14053L3.56942 4.13989L3.57024 4.13952L3.57291 4.13768L3.57355 4.13723L3.57456 4.13677L3.57743 4.13473H3.57761L3.5817 4.13207H3.58189L3.58291 4.1317L3.58598 4.12985L3.58643 4.12948L3.59031 4.12743L3.59114 4.12707H3.5915L3.59458 4.12522L3.59559 4.12458L3.59887 4.12295L3.6003 4.12213L3.60336 4.1209V4.12072L12.2336 0.105321C12.2737 0.0869163 12.3161 0.079759 12.357 0.0828249V0.082642L21.4951 0.728564C21.5147 0.729992 21.5335 0.73347 21.5516 0.738988L21.5575 0.740837L26.8213 2.14659C26.8577 2.1562 26.8901 2.17339 26.9173 2.19608L32.7222 6.37641ZM35.7251 2.50952L33.1325 6.67196L35.5725 8.42952L43.9187 3.31353L41.0019 1.40258L35.7251 2.50952ZM32.8655 7.10025L32.5954 7.53427L34.1449 8.02167L32.8655 7.10025ZM32.3199 7.97648L29.8546 11.9344L34.9577 8.80627L32.3199 7.97648ZM49.4838 0.510002L41.7842 1.31135L44.4748 3.07443L56.8802 4.14271L49.4838 0.510002ZM41.2808 11.3116L58.296 11.1341L52.2215 7.84619L44.5135 3.67433L41.2808 11.3116ZM58.6774 11.6333L41.2845 11.8151L46.7212 24.1289L58.6774 11.6333ZM45.5771 3.67637L58.9449 10.9117L57.9801 4.74444L45.5771 3.67637ZM58.6805 5.96448L59.4888 11.133L61.4523 11.2193L58.6805 5.96448ZM60.0813 17.9542L61.564 11.7288L59.5479 11.6399L60.0813 17.9542ZM46.8711 24.6995L44.8418 32.7086L53.7332 30.2235L59.7042 19.4911V19.4909L59.0675 11.9532L46.8711 24.6995ZM44.699 33.2715L42.2352 42.9952L53.1321 30.9148L50.178 31.7403L44.699 33.2715ZM41.64 43.2893L44.1388 33.4282L36.7279 35.4992L41.64 43.2893ZM44.2813 32.8651L46.1628 25.4399L37.1513 34.8578L44.2813 32.8651ZM46.3439 24.5232L40.9947 12.4081L36.7431 34.557L46.3439 24.5232ZM58.857 22.0492L54.1449 30.5189L52.8014 40.1057L58.857 22.0492ZM39.9092 56.6547L51.5656 43.0907L41.9579 44.1504L39.9092 56.6547ZM51.9511 42.5407L53.5381 31.2182L52.2624 32.6323L42.372 43.5971L51.9511 42.5407ZM31.8488 42.2722L39.3891 56.7128L41.452 44.122L31.8488 42.2722ZM31.8279 41.7547L41.217 43.5632L36.3162 35.7907L31.8279 41.7547ZM26.8682 35.1632L31.3898 41.4998L35.8468 35.5774L26.8682 35.1632ZM31.0027 41.8253L26.4358 35.4252L22.7373 45.6793L29.2472 42.644L31.0027 41.8253ZM28.122 22.5822L26.6455 34.6484L35.8687 35.0738L28.122 22.5822ZM25.9499 34.1205L21.5406 12.3525L14.8026 22.998L25.9499 34.1205ZM26.3 33.3142L27.6972 21.8966L22.1877 13.0123L26.3 33.3142ZM27.7948 21.0985L28.7951 12.9233V12.9231L22.1591 12.0107L27.7948 21.0985ZM21.8281 11.4566L28.2286 12.3369H28.2284L18.0025 3.92468L21.8281 11.4566ZM28.2906 21.8982L36.2086 34.6668L40.5237 12.1876L28.2906 21.8982ZM22.3024 45.4007L26.0303 35.065L18.1518 33.1121L22.3024 45.4007ZM21.9157 56.7654L30.7265 42.5115L22.5374 46.3297L21.9157 56.7654ZM15.2816 47.1409L21.3998 56.9437L22.0255 46.4452L15.2816 47.1409ZM17.9604 32.5454L25.541 34.4244L15.064 23.9707L17.9604 32.5454ZM21.6246 44.9671L17.5718 32.9684L9.15874 30.8831L17.4773 39.9977L17.4896 40.0115L21.6246 44.9671ZM14.4371 22.6333L21.2129 11.9278L3.22749 11.4486L14.4371 22.6333ZM9.14012 31.6107L15.0188 46.6612L21.7977 45.9621L17.1032 40.3363L9.14012 31.6107ZM11.9404 40.1669L8.52059 31.4117L8.18271 30.5467L4.424 24.2373L11.9404 40.1669ZM2.22487 19.5618L7.57627 28.5445L4.61565 18.73L2.75195 12.5515L2.22487 19.5618ZM0.555673 11.6282L1.84935 17.8233L2.32775 11.4593L0.555673 11.6282ZM3.18985 5.98187L0.675731 11.1109L2.38461 10.9481V10.948L3.18985 5.98187ZM3.92698 4.58061L2.89655 10.9361L21.2464 11.4251L17.0858 3.23335L3.92698 4.58061ZM9.67376 3.48575L17.1656 2.71854L17.5151 2.55512L20.4921 1.16348L12.3869 0.590586L5.17362 3.94636L9.67376 3.48575Z" fill="#32393C"/>
<path d="M73.5852 34.883V4.43682C75.5052 4.11682 78.0196 3.84253 81.2196 3.84253C85.1511 3.84253 88.0311 4.75683 89.8597 6.40257C91.5512 7.86545 92.5569 10.1055 92.5569 12.8484C92.5569 15.637 91.7341 17.8313 90.1797 19.4313C88.0769 21.6714 84.6482 22.8142 80.7625 22.8142C79.5739 22.8142 78.4767 22.7685 77.5624 22.54V34.883H73.5852ZM77.5624 7.31687V19.2942C78.431 19.5228 79.5282 19.6142 80.8539 19.6142C85.654 19.6142 88.5797 17.2827 88.5797 13.0312C88.5797 8.96261 85.6997 6.99686 81.311 6.99686C79.5739 6.99686 78.2481 7.13401 77.5624 7.31687Z" fill="#32393C"/>
<path d="M97.0645 34.883V19.6599C97.0645 17.0542 97.0188 14.8141 96.8816 12.7569H100.402L100.539 17.0999H100.722C101.727 14.1284 104.15 12.2541 106.847 12.2541C107.305 12.2541 107.625 12.2998 107.99 12.3912V16.1856C107.579 16.0941 107.167 16.0484 106.619 16.0484C103.785 16.0484 101.773 18.197 101.225 21.2142C101.133 21.7628 101.042 22.4028 101.042 23.0885V34.883H97.0645Z" fill="#32393C"/>
<path d="M120.945 12.2541C127.3 12.2541 131.597 16.8713 131.597 23.6371C131.597 31.8201 125.928 35.3859 120.579 35.3859C114.591 35.3859 109.974 30.9972 109.974 24.0028C109.974 16.597 114.819 12.2541 120.945 12.2541ZM120.854 15.2713C116.099 15.2713 114.042 19.6599 114.042 23.8657C114.042 28.7115 116.831 32.3687 120.762 32.3687C124.602 32.3687 127.482 28.7572 127.482 23.7743C127.482 20.0256 125.608 15.2713 120.854 15.2713Z" fill="#32393C"/>
<path d="M136.8 34.7916V4.48254C139.223 4.11682 142.103 3.84253 145.258 3.84253C150.972 3.84253 155.041 5.16826 157.738 7.68259C160.481 10.1969 162.081 13.7627 162.081 18.7456C162.081 23.7743 160.527 27.8886 157.646 30.7229C154.766 33.603 150.012 35.1573 144.023 35.1573C141.189 35.1573 138.812 35.0201 136.8 34.7916ZM140.778 7.4083V31.7287C141.783 31.9115 143.246 31.9572 144.801 31.9572C153.304 31.9572 157.921 27.2029 157.921 18.8828C157.966 11.6141 153.852 6.99686 145.441 6.99686C143.383 6.99686 141.829 7.17972 140.778 7.4083Z" fill="#32393C"/>
<path d="M185.072 24.5514H169.529C169.62 29.9915 173.095 32.2315 177.117 32.2315C179.998 32.2315 181.735 31.7287 183.243 31.0887L183.929 33.9687C182.512 34.6087 180.089 35.3401 176.569 35.3401C169.757 35.3401 165.689 30.8601 165.689 24.1857C165.689 17.5113 169.62 12.2541 176.066 12.2541C183.289 12.2541 185.209 18.6085 185.209 22.6771C185.209 23.5 185.118 24.14 185.072 24.5514ZM169.575 21.6714H181.323C181.369 19.1113 180.272 15.1341 175.746 15.1341C171.677 15.1341 169.895 18.8828 169.575 21.6714Z" fill="#32393C"/>
<path d="M190.191 34.883V18.7456C190.191 16.4599 190.145 14.5855 190.008 12.7569H193.574L193.802 16.4141H193.894C194.991 14.3113 197.551 12.2541 201.208 12.2541C204.271 12.2541 209.025 14.0827 209.025 21.6714V34.883H205.003V22.1285C205.003 18.5628 203.677 15.5913 199.882 15.5913C197.231 15.5913 195.174 17.4656 194.488 19.7056C194.305 20.2085 194.214 20.8942 194.214 21.5799V34.883H190.191Z" fill="#32393C"/>
<path d="M216.284 7.45401L220.216 6.40257V12.7569H225.976V15.8199H220.216V27.7515C220.216 30.4944 220.993 32.0487 223.233 32.0487C224.284 32.0487 225.061 31.9115 225.564 31.7744L225.747 34.7916C224.97 35.1116 223.736 35.3401 222.181 35.3401C220.307 35.3401 218.798 34.7459 217.838 33.6487C216.696 32.4601 216.284 30.4944 216.284 27.8886V15.8199H212.856V12.7569H216.284V7.45401Z" fill="#32393C"/>
<path d="M261.038 30.7229L261.861 33.8773C260.398 34.6087 257.472 35.3401 253.723 35.3401C245.037 35.3401 238.5 29.8544 238.5 19.7513C238.5 10.1055 245.037 3.56824 254.592 3.56824C258.432 3.56824 260.855 4.39111 261.906 4.93969L260.946 8.18545C259.438 7.45401 257.289 6.90543 254.729 6.90543C247.506 6.90543 242.706 11.5226 242.706 19.6142C242.706 27.1572 247.049 32.003 254.546 32.003C256.969 32.003 259.438 31.5001 261.038 30.7229Z" fill="#32393C"/>
<path d="M275.59 12.2541C281.945 12.2541 286.242 16.8713 286.242 23.6371C286.242 31.8201 280.573 35.3859 275.225 35.3859C269.236 35.3859 264.619 30.9972 264.619 24.0028C264.619 16.597 269.465 12.2541 275.59 12.2541ZM275.499 15.2713C270.745 15.2713 268.687 19.6599 268.687 23.8657C268.687 28.7115 271.476 32.3687 275.408 32.3687C279.248 32.3687 282.128 28.7572 282.128 23.7743C282.128 20.0256 280.253 15.2713 275.499 15.2713Z" fill="#32393C"/>
<path d="M291.308 34.883V18.7456C291.308 16.4599 291.263 14.5855 291.126 12.7569H294.691L294.92 16.4141H295.011C296.109 14.3113 298.669 12.2541 302.326 12.2541C305.389 12.2541 310.143 14.0827 310.143 21.6714V34.883H306.12V22.1285C306.12 18.5628 304.794 15.5913 301 15.5913C298.349 15.5913 296.291 17.4656 295.606 19.7056C295.423 20.2085 295.331 20.8942 295.331 21.5799V34.883H291.308Z" fill="#32393C"/>
<path d="M331.752 31.0429L332.438 34.0601C331.386 34.6087 329.055 35.3401 326.083 35.3401C319.409 35.3401 315.066 30.8144 315.066 24.0485C315.066 17.237 319.729 12.2998 326.952 12.2998C329.329 12.2998 331.432 12.8941 332.529 13.4427L331.615 16.5513C330.655 16.0027 329.146 15.4998 326.952 15.4998C321.878 15.4998 319.135 19.2485 319.135 23.8657C319.135 28.9858 322.426 32.1401 326.815 32.1401C329.1 32.1401 330.609 31.5458 331.752 31.0429Z" fill="#32393C"/>
<path d="M354.673 24.5514H339.13C339.221 29.9915 342.695 32.2315 346.718 32.2315C349.598 32.2315 351.335 31.7287 352.844 31.0887L353.53 33.9687C352.113 34.6087 349.69 35.3401 346.17 35.3401C339.358 35.3401 335.289 30.8601 335.289 24.1857C335.289 17.5113 339.221 12.2541 345.667 12.2541C352.89 12.2541 354.81 18.6085 354.81 22.6771C354.81 23.5 354.718 24.14 354.673 24.5514ZM339.175 21.6714H350.924C350.97 19.1113 349.873 15.1341 345.347 15.1341C341.278 15.1341 339.495 18.8828 339.175 21.6714Z" fill="#32393C"/>
<path d="M359.792 43.9346V19.9799C359.792 17.1456 359.7 14.8598 359.609 12.7569H363.22L363.403 16.5513H363.495C365.14 13.8541 367.746 12.2541 371.358 12.2541C376.706 12.2541 380.729 16.7799 380.729 23.5C380.729 31.4544 375.883 35.3859 370.672 35.3859C367.746 35.3859 365.186 34.1058 363.86 31.9115H363.769V43.9346H359.792ZM363.769 22.0828V25.8771C363.769 26.4714 363.86 27.02 363.952 27.5229C364.683 30.3115 367.106 32.2315 369.986 32.2315C374.238 32.2315 376.706 28.7572 376.706 23.6828C376.706 19.2485 374.375 15.4541 370.123 15.4541C367.38 15.4541 364.82 17.4199 364.043 20.4371C363.906 20.9399 363.769 21.5342 363.769 22.0828Z" fill="#32393C"/>
<path d="M386.733 7.45401L390.665 6.40257V12.7569H396.425V15.8199H390.665V27.7515C390.665 30.4944 391.442 32.0487 393.682 32.0487C394.733 32.0487 395.51 31.9115 396.013 31.7744L396.196 34.7916C395.419 35.1116 394.185 35.3401 392.63 35.3401C390.756 35.3401 389.247 34.7459 388.287 33.6487C387.145 32.4601 386.733 30.4944 386.733 27.8886V15.8199H383.305V12.7569H386.733V7.45401Z" fill="#32393C"/>
</svg>
